<svg xmlns="http://www.w3.org/2000/svg" viewBox="0 0 80 120" width="80" height="120">
  <!--
    SAUNAZEIT Flamme v05 - Klares S als Negativraum
    Das S ist als durchgehende geschwungene Linie im Inneren.
    Orange: #F47A20
  -->

  <!-- Flammenform mit durchgehendem S-Cutout -->
  <path fill="#F47A20" fill-rule="evenodd" d="
    M 40 0
    C 48 12, 62 28, 68 48
    C 74 68, 70 88, 58 105
    C 50 116, 42 120, 40 120
    C 38 120, 30 116, 22 105
    C 10 88, 6 68, 12 48
    C 18 28, 32 12, 40 0
    Z

    M 50 22
    C 55 22, 58 26, 58 32
    C 58 38, 55 42, 50 45
    L 35 55
    C 28 60, 24 68, 24 76
    C 24 86, 30 92, 40 92
    C 46 92, 50 89, 52 85
    L 56 88
    C 52 94, 46 98, 40 98
    C 26 98, 18 88, 18 76
    C 18 65, 24 56, 33 50
    L 48 40
    C 52 37, 52 33, 52 32
    C 52 29, 50 28, 47 28
    C 44 28, 42 30, 40 33
    L 35 30
    C 38 24, 44 22, 50 22
    Z
  "/>
</svg>
