<svg xmlns="http://www.w3.org/2000/svg" viewBox="0 0 80 120" width="80" height="120">
  <!--
    SAUNAZEIT Flamme v06 - Symmetrisches S
    Das S hat gleichmaessig geschwungene Boegen oben und unten.
    Orange: #F47A20
  -->

  <path fill="#F47A20" fill-rule="evenodd" d="
    M 40 0
    C 48 12, 62 28, 68 48
    C 74 68, 70 88, 58 105
    C 50 116, 42 120, 40 120
    C 38 120, 30 116, 22 105
    C 10 88, 6 68, 12 48
    C 18 28, 32 12, 40 0
    Z

    M 28 30
    C 28 24, 34 20, 42 20
    C 50 20, 56 24, 56 32
    C 56 38, 52 42, 46 46
    L 36 54
    C 30 58, 26 64, 26 72
    L 32 72
    C 32 66, 35 62, 40 58
    L 50 50
    C 56 46, 60 40, 60 32
    C 60 22, 52 16, 42 16
    C 32 16, 24 22, 24 32
    L 28 30
    Z

    M 52 90
    C 52 96, 46 100, 38 100
    C 30 100, 24 96, 24 88
    C 24 82, 28 78, 34 74
    L 44 66
    C 50 62, 54 56, 54 48
    L 48 48
    C 48 54, 45 58, 40 62
    L 30 70
    C 24 74, 20 80, 20 88
    C 20 98, 28 104, 38 104
    C 48 104, 56 98, 56 88
    L 52 90
    Z
  "/>
</svg>
