<svg xmlns="http://www.w3.org/2000/svg" viewBox="0 0 80 120" width="80" height="120">
  <!--
    SAUNAZEIT Flamme v04 - Klassische Flamme mit S-Schlitz
    Ein durchgehender S-foermiger Negativraum teilt die Flamme.
    Das ist die klarste Darstellung des "S im Negativraum".
    Orange: #F47A20
  -->

  <path fill="#F47A20" fill-rule="evenodd" d="
    M 40 0
    C 48 12, 62 28, 68 48
    C 74 68, 70 88, 58 105
    C 50 116, 42 120, 40 120
    C 38 120, 30 116, 22 105
    C 10 88, 6 68, 12 48
    C 18 28, 32 12, 40 0
    Z

    M 52 25
    C 56 30, 58 38, 55 45
    C 52 52, 45 55, 40 55
    C 32 55, 26 50, 26 42
    L 30 42
    C 30 47, 34 50, 40 50
    C 45 50, 49 47, 51 42
    C 53 37, 50 32, 45 28
    L 52 25
    Z

    M 28 75
    C 24 70, 22 62, 25 55
    C 28 48, 35 45, 40 45
    C 48 45, 54 50, 54 58
    L 50 58
    C 50 53, 46 50, 40 50
    C 35 50, 31 53, 29 58
    C 27 63, 30 68, 35 72
    L 28 75
    Z
  "/>
</svg>
