<svg xmlns="http://www.w3.org/2000/svg" viewBox="0 0 80 120" width="80" height="120">
  <!--
    SAUNAZEIT Flamme v07 - Einfaches durchgehendes S
    Ein klarer S-Pfad als Negativraum in der Flammenform.
    Orange: #F47A20
  -->

  <path fill="#F47A20" fill-rule="evenodd" d="
    M 40 0
    C 48 12, 62 28, 68 48
    C 74 68, 70 88, 58 105
    C 50 116, 42 120, 40 120
    C 38 120, 30 116, 22 105
    C 10 88, 6 68, 12 48
    C 18 28, 32 12, 40 0
    Z

    M 50 24
    L 50 28
    C 44 28, 38 32, 38 38
    C 38 44, 44 48, 50 52
    C 58 57, 62 64, 62 72
    C 62 84, 52 92, 40 92
    C 28 92, 20 84, 20 74
    L 24 74
    C 24 82, 30 88, 40 88
    C 50 88, 58 82, 58 72
    C 58 66, 54 60, 46 56
    C 38 51, 34 46, 34 38
    C 34 30, 40 24, 50 24
    Z
  "/>
</svg>
